<?xml version="1.0" encoding="UTF-8" standalone="no"?>
<!-- Created with Inkscape (http://www.inkscape.org/) -->

<svg
   width="210mm"
   height="297mm"
   viewBox="0 0 210 297"
   version="1.1"
   id="svg1"
   inkscape:version="1.3 (0e150ed6c4, 2023-07-21)"
   sodipodi:docname="rueckseite.svg"
   xmlns:inkscape="http://www.inkscape.org/namespaces/inkscape"
   xmlns:sodipodi="http://sodipodi.sourceforge.net/DTD/sodipodi-0.dtd"
   xmlns="http://www.w3.org/2000/svg"
   xmlns:svg="http://www.w3.org/2000/svg">
  <sodipodi:namedview
     id="namedview1"
     pagecolor="#ffffff"
     bordercolor="#000000"
     borderopacity="0.25"
     inkscape:showpageshadow="2"
     inkscape:pageopacity="0.0"
     inkscape:pagecheckerboard="0"
     inkscape:deskcolor="#d1d1d1"
     inkscape:document-units="mm"
     inkscape:zoom="0.72426347"
     inkscape:cx="370.72145"
     inkscape:cy="612.34622"
     inkscape:window-width="1920"
     inkscape:window-height="1009"
     inkscape:window-x="1912"
     inkscape:window-y="-7"
     inkscape:window-maximized="1"
     inkscape:current-layer="layer1" />
  <defs
     id="defs1" />
  <g
     inkscape:label="Ebene 1"
     inkscape:groupmode="layer"
     id="layer1">
    <rect
       width="296.99527"
       height="210"
       fill="#001829"
       id="rect1"
       x="2.8421709e-14"
       y="-210"
       transform="rotate(90)"
       style="stroke-width:0.339849" />
    <g
       id="g172"
       transform="matrix(0,0.32762854,-0.34645528,0,207.87318,2.129586)">
      <g
         transform="translate(301,514)"
         id="g2">
        <path
           d="m 0,-13.1 11.4,6.5 V 6.6 L 0,13.1 -11.4,6.6 V -6.6 Z"
           fill="none"
           stroke="#297ea6"
           stroke-width="2"
           id="path1" />
      </g>
      <g
         transform="translate(469,390)"
         id="g3">
        <path
           d="m 0,-6 5.2,3 V 3 L 0,6 -5.2,3 v -6 z"
           fill="none"
           stroke="#297ea6"
           stroke-width="2"
           id="path2" />
      </g>
      <g
         transform="translate(675,581)"
         id="g4">
        <path
           d="m 0,-8 6.9,4 V 4 L 0,8 -6.9,4 v -8 z"
           fill="none"
           stroke="#297ea6"
           stroke-width="2"
           id="path3" />
      </g>
      <g
         transform="translate(567,339)"
         id="g5">
        <path
           d="m 0,-12 10.4,6 V 6 L 0,12 -10.4,6 V -6 Z"
           fill="none"
           stroke="#297ea6"
           stroke-width="2"
           id="path4" />
      </g>
      <g
         transform="translate(668,121)"
         id="g6">
        <path
           d="m 0,-7 6.1,3.5 v 7 L 0,7 -6.1,3.5 v -7 z"
           fill="none"
           stroke="#297ea6"
           stroke-width="2"
           id="path5" />
      </g>
      <g
         transform="translate(596,370)"
         id="g7">
        <path
           d="m 0,-10 8.7,5 V 5 L 0,10 -8.7,5 V -5 Z"
           fill="none"
           stroke="#297ea6"
           stroke-width="2"
           id="path6" />
      </g>
      <g
         transform="translate(817,511)"
         id="g8">
        <path
           d="m 0,-5 4.3,2.5 v 5 L 0,5 -4.3,2.5 v -5 z"
           fill="none"
           stroke="#297ea6"
           stroke-width="2"
           id="path7" />
      </g>
      <g
         transform="translate(733,74)"
         id="g9">
        <path
           d="m 0,-12 10.4,6 V 6 L 0,12 -10.4,6 V -6 Z"
           fill="none"
           stroke="#297ea6"
           stroke-width="2"
           id="path8" />
      </g>
      <g
         transform="translate(104,439)"
         id="g10">
        <path
           d="m 0,-5 4.3,2.5 v 5 L 0,5 -4.3,2.5 v -5 z"
           fill="none"
           stroke="#297ea6"
           stroke-width="2"
           id="path9" />
      </g>
      <g
         transform="translate(210,489)"
         id="g11">
        <path
           d="m 0,-11 9.5,5.5 v 11 L 0,11 -9.5,5.5 v -11 z"
           fill="none"
           stroke="#297ea6"
           stroke-width="2"
           id="path10" />
      </g>
      <g
         transform="translate(594,124)"
         id="g12">
        <path
           d="m 0,-7 6.1,3.5 v 7 L 0,7 -6.1,3.5 v -7 z"
           fill="none"
           stroke="#297ea6"
           stroke-width="2"
           id="path11" />
      </g>
      <g
         transform="translate(154,370)"
         id="g13">
        <path
           d="m 0,-9 7.8,4.5 v 9 L 0,9 -7.8,4.5 v -9 z"
           fill="none"
           stroke="#297ea6"
           stroke-width="2"
           id="path12" />
      </g>
      <g
         transform="translate(38,491)"
         id="g14">
        <path
           d="m 0,-4 3.5,2 V 2 L 0,4 -3.5,2 v -4 z"
           fill="none"
           stroke="#297ea6"
           stroke-width="2"
           id="path13" />
      </g>
      <g
         transform="translate(23,392)"
         id="g15">
        <path
           d="m 0,-10 8.7,5 V 5 L 0,10 -8.7,5 V -5 Z"
           fill="none"
           stroke="#297ea6"
           stroke-width="2"
           id="path14" />
      </g>
      <g
         transform="translate(749,439)"
         id="g16">
        <path
           d="m 0,-12 10.4,6 V 6 L 0,12 -10.4,6 V -6 Z"
           fill="none"
           stroke="#297ea6"
           stroke-width="2"
           id="path15" />
      </g>
      <g
         transform="translate(343,51)"
         id="g17">
        <path
           d="m 0,-11 9.5,5.5 v 11 L 0,11 -9.5,5.5 v -11 z"
           fill="none"
           stroke="#297ea6"
           stroke-width="2"
           id="path16" />
      </g>
      <g
         transform="translate(699,147)"
         id="g18">
        <path
           d="m 0,-5 4.3,2.5 v 5 L 0,5 -4.3,2.5 v -5 z"
           fill="none"
           stroke="#297ea6"
           stroke-width="2"
           id="path17" />
      </g>
      <g
         transform="translate(519,336)"
         id="g19">
        <path
           d="m 0,-7 6.1,3.5 v 7 L 0,7 -6.1,3.5 v -7 z"
           fill="none"
           stroke="#297ea6"
           stroke-width="2"
           id="path18" />
      </g>
      <g
         transform="translate(368,320)"
         id="g20">
        <path
           d="m 0,-4 3.5,2 V 2 L 0,4 -3.5,2 v -4 z"
           fill="none"
           stroke="#297ea6"
           stroke-width="2"
           id="path19" />
      </g>
      <g
         transform="translate(581,304)"
         id="g21">
        <path
           d="m 0,-9 7.8,4.5 v 9 L 0,9 -7.8,4.5 v -9 z"
           fill="none"
           stroke="#297ea6"
           stroke-width="2"
           id="path20" />
      </g>
      <g
         transform="translate(170,395)"
         id="g22">
        <path
           d="m 0,-5 4.3,2.5 v 5 L 0,5 -4.3,2.5 v -5 z"
           fill="none"
           stroke="#297ea6"
           stroke-width="2"
           id="path21" />
      </g>
      <g
         transform="translate(150,511)"
         id="g23">
        <path
           d="m 0,-4 3.5,2 V 2 L 0,4 -3.5,2 v -4 z"
           fill="none"
           stroke="#297ea6"
           stroke-width="2"
           id="path22" />
      </g>
      <g
         transform="translate(310,27)"
         id="g24">
        <path
           d="m 0,-7 6.1,3.5 v 7 L 0,7 -6.1,3.5 v -7 z"
           fill="none"
           stroke="#297ea6"
           stroke-width="2"
           id="path23" />
      </g>
      <g
         transform="translate(261,391)"
         id="g25">
        <path
           d="m 0,-6 5.2,3 V 3 L 0,6 -5.2,3 v -6 z"
           fill="none"
           stroke="#297ea6"
           stroke-width="2"
           id="path24" />
      </g>
      <g
         transform="translate(866,531)"
         id="g26">
        <path
           d="m 0,-5 4.3,2.5 v 5 L 0,5 -4.3,2.5 v -5 z"
           fill="none"
           stroke="#297ea6"
           stroke-width="2"
           id="path25" />
      </g>
      <g
         transform="translate(765,575)"
         id="g27">
        <path
           d="m 0,-11 9.5,5.5 v 11 L 0,11 -9.5,5.5 v -11 z"
           fill="none"
           stroke="#297ea6"
           stroke-width="2"
           id="path26" />
      </g>
      <g
         transform="translate(134,219)"
         id="g28">
        <path
           d="m 0,-7 6.1,3.5 v 7 L 0,7 -6.1,3.5 v -7 z"
           fill="none"
           stroke="#297ea6"
           stroke-width="2"
           id="path27" />
      </g>
      <g
         transform="translate(716,102)"
         id="g29">
        <path
           d="m 0,-4 3.5,2 V 2 L 0,4 -3.5,2 v -4 z"
           fill="none"
           stroke="#297ea6"
           stroke-width="2"
           id="path28" />
      </g>
      <g
         transform="translate(592,447)"
         id="g30">
        <path
           d="m 0,-7 6.1,3.5 v 7 L 0,7 -6.1,3.5 v -7 z"
           fill="none"
           stroke="#297ea6"
           stroke-width="2"
           id="path29" />
      </g>
      <g
         transform="translate(361,560)"
         id="g31">
        <path
           d="m 0,-5 4.3,2.5 v 5 L 0,5 -4.3,2.5 v -5 z"
           fill="none"
           stroke="#297ea6"
           stroke-width="2"
           id="path30" />
      </g>
      <g
         transform="translate(235,395)"
         id="g32">
        <path
           d="m 0,-12 10.4,6 V 6 L 0,12 -10.4,6 V -6 Z"
           fill="none"
           stroke="#297ea6"
           stroke-width="2"
           id="path31" />
      </g>
      <g
         transform="translate(408,39)"
         id="g33">
        <path
           d="m 0,-12 10.4,6 V 6 L 0,12 -10.4,6 V -6 Z"
           fill="none"
           stroke="#297ea6"
           stroke-width="2"
           id="path32" />
      </g>
      <g
         transform="translate(10,422)"
         id="g34">
        <path
           d="m 0,-10 8.7,5 V 5 L 0,10 -8.7,5 V -5 Z"
           fill="none"
           stroke="#297ea6"
           stroke-width="2"
           id="path33" />
      </g>
      <g
         transform="translate(742,112)"
         id="g35">
        <path
           d="m 0,-8 6.9,4 V 4 L 0,8 -6.9,4 v -8 z"
           fill="none"
           stroke="#297ea6"
           stroke-width="2"
           id="path34" />
      </g>
      <g
         transform="translate(4,176)"
         id="g36">
        <path
           d="m 0,-11 9.5,5.5 v 11 L 0,11 -9.5,5.5 v -11 z"
           fill="none"
           stroke="#297ea6"
           stroke-width="2"
           id="path35" />
      </g>
      <g
         transform="translate(450,316)"
         id="g37">
        <path
           d="m 0,-9 7.8,4.5 v 9 L 0,9 -7.8,4.5 v -9 z"
           fill="none"
           stroke="#297ea6"
           stroke-width="2"
           id="path36" />
      </g>
      <g
         transform="translate(86,343)"
         id="g38">
        <path
           d="m 0,-5 4.3,2.5 v 5 L 0,5 -4.3,2.5 v -5 z"
           fill="none"
           stroke="#297ea6"
           stroke-width="2"
           id="path37" />
      </g>
      <g
         transform="translate(36,434)"
         id="g39">
        <path
           d="m 0,-4 3.5,2 V 2 L 0,4 -3.5,2 v -4 z"
           fill="none"
           stroke="#297ea6"
           stroke-width="2"
           id="path38" />
      </g>
      <g
         transform="translate(422,111)"
         id="g40">
        <path
           d="m 0,-4 3.5,2 V 2 L 0,4 -3.5,2 v -4 z"
           fill="none"
           stroke="#297ea6"
           stroke-width="2"
           id="path39" />
      </g>
      <g
         transform="translate(615,205)"
         id="g41">
        <path
           d="m 0,-6 5.2,3 V 3 L 0,6 -5.2,3 v -6 z"
           fill="none"
           stroke="#297ea6"
           stroke-width="2"
           id="path40" />
      </g>
      <g
         transform="translate(529,176)"
         id="g42">
        <path
           d="m 0,-5 4.3,2.5 v 5 L 0,5 -4.3,2.5 v -5 z"
           fill="none"
           stroke="#297ea6"
           stroke-width="2"
           id="path41" />
      </g>
      <g
         transform="translate(640,312)"
         id="g43">
        <path
           d="m 0,-8 6.9,4 V 4 L 0,8 -6.9,4 v -8 z"
           fill="none"
           stroke="#297ea6"
           stroke-width="2"
           id="path42" />
      </g>
      <g
         transform="translate(701,234)"
         id="g44">
        <path
           d="m 0,-7 6.1,3.5 v 7 L 0,7 -6.1,3.5 v -7 z"
           fill="none"
           stroke="#297ea6"
           stroke-width="2"
           id="path43" />
      </g>
      <g
         transform="translate(549,527)"
         id="g45">
        <path
           d="m 0,-4 3.5,2 V 2 L 0,4 -3.5,2 v -4 z"
           fill="none"
           stroke="#297ea6"
           stroke-width="2"
           id="path44" />
      </g>
      <g
         transform="translate(883,415)"
         id="g46">
        <path
           d="m 0,-8 6.9,4 V 4 L 0,8 -6.9,4 v -8 z"
           fill="none"
           stroke="#297ea6"
           stroke-width="2"
           id="path45" />
      </g>
      <g
         transform="translate(791,465)"
         id="g47">
        <path
           d="m 0,-11 9.5,5.5 v 11 L 0,11 -9.5,5.5 v -11 z"
           fill="none"
           stroke="#297ea6"
           stroke-width="2"
           id="path46" />
      </g>
      <g
         transform="translate(340,97)"
         id="g48">
        <path
           d="m 0,-5 4.3,2.5 v 5 L 0,5 -4.3,2.5 v -5 z"
           fill="none"
           stroke="#297ea6"
           stroke-width="2"
           id="path47" />
      </g>
      <g
         transform="translate(382,183)"
         id="g49">
        <path
           d="m 0,-8 6.9,4 V 4 L 0,8 -6.9,4 v -8 z"
           fill="none"
           stroke="#297ea6"
           stroke-width="2"
           id="path48" />
      </g>
      <g
         transform="translate(36,41)"
         id="g50">
        <path
           d="m 0,-12 10.4,6 V 6 L 0,12 -10.4,6 V -6 Z"
           fill="none"
           stroke="#297ea6"
           stroke-width="2"
           id="path49" />
      </g>
      <g
         transform="translate(447,282)"
         id="g51">
        <path
           d="m 0,-11 9.5,5.5 v 11 L 0,11 -9.5,5.5 v -11 z"
           fill="none"
           stroke="#297ea6"
           stroke-width="2"
           id="path50" />
      </g>
      <g
         transform="translate(612,309)"
         id="g52">
        <path
           d="m 0,-7 6.1,3.5 v 7 L 0,7 -6.1,3.5 v -7 z"
           fill="none"
           stroke="#297ea6"
           stroke-width="2"
           id="path51" />
      </g>
      <g
         transform="translate(730,555)"
         id="g53">
        <path
           d="m 0,-7 6.1,3.5 v 7 L 0,7 -6.1,3.5 v -7 z"
           fill="none"
           stroke="#297ea6"
           stroke-width="2"
           id="path52" />
      </g>
      <g
         transform="translate(409,196)"
         id="g54">
        <path
           d="m 0,-10 8.7,5 V 5 L 0,10 -8.7,5 V -5 Z"
           fill="none"
           stroke="#297ea6"
           stroke-width="2"
           id="path53" />
      </g>
      <g
         transform="translate(265,6)"
         id="g55">
        <path
           d="m 0,-9 7.8,4.5 v 9 L 0,9 -7.8,4.5 v -9 z"
           fill="none"
           stroke="#297ea6"
           stroke-width="2"
           id="path54" />
      </g>
      <g
         transform="translate(483,65)"
         id="g56">
        <path
           d="m 0,-7 6.1,3.5 v 7 L 0,7 -6.1,3.5 v -7 z"
           fill="none"
           stroke="#297ea6"
           stroke-width="2"
           id="path55" />
      </g>
      <g
         transform="translate(702,409)"
         id="g57">
        <path
           d="m 0,-8 6.9,4 V 4 L 0,8 -6.9,4 v -8 z"
           fill="none"
           stroke="#297ea6"
           stroke-width="2"
           id="path56" />
      </g>
      <g
         transform="translate(689,492)"
         id="g58">
        <path
           d="m 0,-11 9.5,5.5 v 11 L 0,11 -9.5,5.5 v -11 z"
           fill="none"
           stroke="#297ea6"
           stroke-width="2"
           id="path57" />
      </g>
      <g
         transform="translate(263,579)"
         id="g59">
        <path
           d="m 0,-5 4.3,2.5 v 5 L 0,5 -4.3,2.5 v -5 z"
           fill="none"
           stroke="#297ea6"
           stroke-width="2"
           id="path58" />
      </g>
      <g
         transform="translate(828,553)"
         id="g60">
        <path
           d="m 0,-11 9.5,5.5 v 11 L 0,11 -9.5,5.5 v -11 z"
           fill="none"
           stroke="#297ea6"
           stroke-width="2"
           id="path59" />
      </g>
      <g
         transform="translate(862,128)"
         id="g61">
        <path
           d="m 0,-4 3.5,2 V 2 L 0,4 -3.5,2 v -4 z"
           fill="none"
           stroke="#297ea6"
           stroke-width="2"
           id="path60" />
      </g>
      <g
         transform="translate(293,571)"
         id="g62">
        <path
           d="m 0,-5 4.3,2.5 v 5 L 0,5 -4.3,2.5 v -5 z"
           fill="none"
           stroke="#297ea6"
           stroke-width="2"
           id="path61" />
      </g>
      <g
         transform="translate(211,81)"
         id="g63">
        <path
           d="m 0,-4 3.5,2 V 2 L 0,4 -3.5,2 v -4 z"
           fill="none"
           stroke="#297ea6"
           stroke-width="2"
           id="path62" />
      </g>
      <g
         transform="translate(876,342)"
         id="g64">
        <path
           d="m 0,-9 7.8,4.5 v 9 L 0,9 -7.8,4.5 v -9 z"
           fill="none"
           stroke="#297ea6"
           stroke-width="2"
           id="path63" />
      </g>
      <g
         transform="translate(660,451)"
         id="g65">
        <path
           d="m 0,-7 6.1,3.5 v 7 L 0,7 -6.1,3.5 v -7 z"
           fill="none"
           stroke="#297ea6"
           stroke-width="2"
           id="path64" />
      </g>
      <g
         transform="translate(813,5)"
         id="g66">
        <path
           d="m 0,-5 4.3,2.5 v 5 L 0,5 -4.3,2.5 v -5 z"
           fill="none"
           stroke="#297ea6"
           stroke-width="2"
           id="path65" />
      </g>
      <g
         transform="translate(322,544)"
         id="g67">
        <path
           d="m 0,-4 3.5,2 V 2 L 0,4 -3.5,2 v -4 z"
           fill="none"
           stroke="#297ea6"
           stroke-width="2"
           id="path66" />
      </g>
      <g
         transform="translate(362,367)"
         id="g68">
        <path
           d="m 0,-7 6.1,3.5 v 7 L 0,7 -6.1,3.5 v -7 z"
           fill="none"
           stroke="#297ea6"
           stroke-width="2"
           id="path67" />
      </g>
      <g
         transform="translate(767,207)"
         id="g69">
        <path
           d="m 0,-6 5.2,3 V 3 L 0,6 -5.2,3 v -6 z"
           fill="none"
           stroke="#297ea6"
           stroke-width="2"
           id="path68" />
      </g>
      <g
         transform="translate(764,242)"
         id="g70">
        <path
           d="m 0,-10 8.7,5 V 5 L 0,10 -8.7,5 V -5 Z"
           fill="none"
           stroke="#297ea6"
           stroke-width="2"
           id="path69" />
      </g>
      <g
         transform="translate(533,79)"
         id="g71">
        <path
           d="m 0,-10 8.7,5 V 5 L 0,10 -8.7,5 V -5 Z"
           fill="none"
           stroke="#297ea6"
           stroke-width="2"
           id="path70" />
      </g>
      <g
         transform="translate(489,431)"
         id="g72">
        <path
           d="m 0,-4 3.5,2 V 2 L 0,4 -3.5,2 v -4 z"
           fill="none"
           stroke="#297ea6"
           stroke-width="2"
           id="path71" />
      </g>
      <g
         transform="translate(14,323)"
         id="g73">
        <path
           d="m 0,-5 4.3,2.5 v 5 L 0,5 -4.3,2.5 v -5 z"
           fill="none"
           stroke="#297ea6"
           stroke-width="2"
           id="path72" />
      </g>
      <g
         transform="translate(198,409)"
         id="g74">
        <path
           d="m 0,-7 6.1,3.5 v 7 L 0,7 -6.1,3.5 v -7 z"
           fill="none"
           stroke="#297ea6"
           stroke-width="2"
           id="path73" />
      </g>
      <g
         transform="translate(68,187)"
         id="g75">
        <path
           d="m 0,-7 6.1,3.5 v 7 L 0,7 -6.1,3.5 v -7 z"
           fill="none"
           stroke="#297ea6"
           stroke-width="2"
           id="path74" />
      </g>
      <g
         transform="translate(775,533)"
         id="g76">
        <path
           d="m 0,-6 5.2,3 V 3 L 0,6 -5.2,3 v -6 z"
           fill="none"
           stroke="#297ea6"
           stroke-width="2"
           id="path75" />
      </g>
      <g
         transform="translate(589,81)"
         id="g77">
        <path
           d="m 0,-9 7.8,4.5 v 9 L 0,9 -7.8,4.5 v -9 z"
           fill="none"
           stroke="#297ea6"
           stroke-width="2"
           id="path76" />
      </g>
      <g
         transform="translate(621,351)"
         id="g78">
        <path
           d="m 0,-12 10.4,6 V 6 L 0,12 -10.4,6 V -6 Z"
           fill="none"
           stroke="#297ea6"
           stroke-width="2"
           id="path77" />
      </g>
      <g
         transform="translate(867,2)"
         id="g79">
        <path
           d="m 0,-7 6.1,3.5 v 7 L 0,7 -6.1,3.5 v -7 z"
           fill="none"
           stroke="#297ea6"
           stroke-width="2"
           id="path78" />
      </g>
      <g
         transform="translate(848,22)"
         id="g80">
        <path
           d="m 0,-11 9.5,5.5 v 11 L 0,11 -9.5,5.5 v -11 z"
           fill="none"
           stroke="#297ea6"
           stroke-width="2"
           id="path79" />
      </g>
      <g
         transform="translate(266,288)"
         id="g81">
        <path
           d="m 0,-10 8.7,5 V 5 L 0,10 -8.7,5 V -5 Z"
           fill="none"
           stroke="#297ea6"
           stroke-width="2"
           id="path80" />
      </g>
      <g
         transform="translate(422,336)"
         id="g82">
        <path
           d="m 0,-5 4.3,2.5 v 5 L 0,5 -4.3,2.5 v -5 z"
           fill="none"
           stroke="#297ea6"
           stroke-width="2"
           id="path81" />
      </g>
      <g
         transform="translate(767,309)"
         id="g83">
        <path
           d="m 0,-5 4.3,2.5 v 5 L 0,5 -4.3,2.5 v -5 z"
           fill="none"
           stroke="#297ea6"
           stroke-width="2"
           id="path82" />
      </g>
      <g
         transform="translate(428,531)"
         id="g84">
        <path
           d="m 0,-5 4.3,2.5 v 5 L 0,5 -4.3,2.5 v -5 z"
           fill="none"
           stroke="#297ea6"
           stroke-width="2"
           id="path83" />
      </g>
      <g
         transform="translate(516,532)"
         id="g85">
        <path
           d="m 0,-9 7.8,4.5 v 9 L 0,9 -7.8,4.5 v -9 z"
           fill="none"
           stroke="#297ea6"
           stroke-width="2"
           id="path84" />
      </g>
      <g
         transform="translate(195,328)"
         id="g86">
        <path
           d="m 0,-9 7.8,4.5 v 9 L 0,9 -7.8,4.5 v -9 z"
           fill="none"
           stroke="#297ea6"
           stroke-width="2"
           id="path85" />
      </g>
      <g
         transform="translate(637,263)"
         id="g87">
        <path
           d="m 0,-9 7.8,4.5 v 9 L 0,9 -7.8,4.5 v -9 z"
           fill="none"
           stroke="#297ea6"
           stroke-width="2"
           id="path86" />
      </g>
      <g
         transform="translate(211,120)"
         id="g88">
        <path
           d="m 0,-7 6.1,3.5 v 7 L 0,7 -6.1,3.5 v -7 z"
           fill="none"
           stroke="#297ea6"
           stroke-width="2"
           id="path87" />
      </g>
      <g
         transform="translate(891,15)"
         id="g89">
        <path
           d="m 0,-7 6.1,3.5 v 7 L 0,7 -6.1,3.5 v -7 z"
           fill="none"
           stroke="#297ea6"
           stroke-width="2"
           id="path88" />
      </g>
      <g
         transform="translate(10,6)"
         id="g90">
        <path
           d="m 0,-10 8.7,5 V 5 L 0,10 -8.7,5 V -5 Z"
           fill="none"
           stroke="#297ea6"
           stroke-width="2"
           id="path89" />
      </g>
      <g
         transform="translate(54,73)"
         id="g91">
        <path
           d="m 0,-11 9.5,5.5 v 11 L 0,11 -9.5,5.5 v -11 z"
           fill="none"
           stroke="#297ea6"
           stroke-width="2"
           id="path90" />
      </g>
      <g
         transform="translate(327,368)"
         id="g92">
        <path
           d="m 0,-10 8.7,5 V 5 L 0,10 -8.7,5 V -5 Z"
           fill="none"
           stroke="#297ea6"
           stroke-width="2"
           id="path91" />
      </g>
      <g
         transform="translate(254,497)"
         id="g93">
        <path
           d="m 0,-6 5.2,3 V 3 L 0,6 -5.2,3 v -6 z"
           fill="none"
           stroke="#297ea6"
           stroke-width="2"
           id="path92" />
      </g>
      <g
         transform="translate(140,53)"
         id="g94">
        <path
           d="m 0,-4 3.5,2 V 2 L 0,4 -3.5,2 v -4 z"
           fill="none"
           stroke="#297ea6"
           stroke-width="2"
           id="path93" />
      </g>
      <g
         transform="translate(42,192)"
         id="g95">
        <path
           d="m 0,-7 6.1,3.5 v 7 L 0,7 -6.1,3.5 v -7 z"
           fill="none"
           stroke="#297ea6"
           stroke-width="2"
           id="path94" />
      </g>
      <g
         transform="translate(238,273)"
         id="g96">
        <path
           d="m 0,-12 10.4,6 V 6 L 0,12 -10.4,6 V -6 Z"
           fill="none"
           stroke="#297ea6"
           stroke-width="2"
           id="path95" />
      </g>
      <g
         transform="translate(562,439)"
         id="g97">
        <path
           d="m 0,-12 10.4,6 V 6 L 0,12 -10.4,6 V -6 Z"
           fill="none"
           stroke="#297ea6"
           stroke-width="2"
           id="path96" />
      </g>
      <g
         transform="translate(730,149)"
         id="g98">
        <path
           d="m 0,-11 9.5,5.5 v 11 L 0,11 -9.5,5.5 v -11 z"
           fill="none"
           stroke="#297ea6"
           stroke-width="2"
           id="path97" />
      </g>
      <g
         transform="translate(282,457)"
         id="g99">
        <path
           d="m 0,-8 6.9,4 V 4 L 0,8 -6.9,4 v -8 z"
           fill="none"
           stroke="#297ea6"
           stroke-width="2"
           id="path98" />
      </g>
      <g
         transform="translate(691,331)"
         id="g100">
        <path
           d="m 0,-7 6.1,3.5 v 7 L 0,7 -6.1,3.5 v -7 z"
           fill="none"
           stroke="#297ea6"
           stroke-width="2"
           id="path99" />
      </g>
      <g
         transform="translate(42,581)"
         id="g101">
        <path
           d="m 0,-6 5.2,3 V 3 L 0,6 -5.2,3 v -6 z"
           fill="none"
           stroke="#297ea6"
           stroke-width="2"
           id="path100" />
      </g>
      <g
         transform="translate(113,62)"
         id="g102">
        <path
           d="m 0,-8 6.9,4 V 4 L 0,8 -6.9,4 v -8 z"
           fill="none"
           stroke="#297ea6"
           stroke-width="2"
           id="path101" />
      </g>
      <g
         transform="translate(782,273)"
         id="g103">
        <path
           d="m 0,-8 6.9,4 V 4 L 0,8 -6.9,4 v -8 z"
           fill="none"
           stroke="#297ea6"
           stroke-width="2"
           id="path102" />
      </g>
      <g
         transform="translate(229,361)"
         id="g104">
        <path
           d="m 0,-11 9.5,5.5 v 11 L 0,11 -9.5,5.5 v -11 z"
           fill="none"
           stroke="#297ea6"
           stroke-width="2"
           id="path103" />
      </g>
      <g
         transform="translate(430,57)"
         id="g105">
        <path
           d="m 0,-8 6.9,4 V 4 L 0,8 -6.9,4 v -8 z"
           fill="none"
           stroke="#297ea6"
           stroke-width="2"
           id="path104" />
      </g>
      <g
         transform="translate(895,481)"
         id="g106">
        <path
           d="m 0,-4 3.5,2 V 2 L 0,4 -3.5,2 v -4 z"
           fill="none"
           stroke="#297ea6"
           stroke-width="2"
           id="path105" />
      </g>
      <g
         transform="translate(860,195)"
         id="g107">
        <path
           d="m 0,-7 6.1,3.5 v 7 L 0,7 -6.1,3.5 v -7 z"
           fill="none"
           stroke="#297ea6"
           stroke-width="2"
           id="path106" />
      </g>
      <g
         transform="translate(506,401)"
         id="g108">
        <path
           d="m 0,-5 4.3,2.5 v 5 L 0,5 -4.3,2.5 v -5 z"
           fill="none"
           stroke="#297ea6"
           stroke-width="2"
           id="path107" />
      </g>
      <g
         transform="translate(389,93)"
         id="g109">
        <path
           d="m 0,-8 6.9,4 V 4 L 0,8 -6.9,4 v -8 z"
           fill="none"
           stroke="#297ea6"
           stroke-width="2"
           id="path108" />
      </g>
      <g
         transform="translate(711,31)"
         id="g110">
        <path
           d="m 0,-9 7.8,4.5 v 9 L 0,9 -7.8,4.5 v -9 z"
           fill="none"
           stroke="#297ea6"
           stroke-width="2"
           id="path109" />
      </g>
      <g
         transform="translate(851,80)"
         id="g111">
        <path
           d="m 0,-6 5.2,3 V 3 L 0,6 -5.2,3 v -6 z"
           fill="none"
           stroke="#297ea6"
           stroke-width="2"
           id="path110" />
      </g>
      <g
         transform="translate(431,442)"
         id="g112">
        <path
           d="m 0,-7 6.1,3.5 v 7 L 0,7 -6.1,3.5 v -7 z"
           fill="none"
           stroke="#297ea6"
           stroke-width="2"
           id="path111" />
      </g>
      <g
         transform="translate(33,343)"
         id="g113">
        <path
           d="m 0,-11 9.5,5.5 v 11 L 0,11 -9.5,5.5 v -11 z"
           fill="none"
           stroke="#297ea6"
           stroke-width="2"
           id="path112" />
      </g>
      <g
         transform="translate(655,183)"
         id="g114">
        <path
           d="m 0,-5 4.3,2.5 v 5 L 0,5 -4.3,2.5 v -5 z"
           fill="none"
           stroke="#297ea6"
           stroke-width="2"
           id="path113" />
      </g>
      <g
         transform="translate(171,65)"
         id="g115">
        <path
           d="m 0,-7 6.1,3.5 v 7 L 0,7 -6.1,3.5 v -7 z"
           fill="none"
           stroke="#297ea6"
           stroke-width="2"
           id="path114" />
      </g>
      <g
         transform="translate(48,547)"
         id="g116">
        <path
           d="m 0,-12 10.4,6 V 6 L 0,12 -10.4,6 V -6 Z"
           fill="none"
           stroke="#297ea6"
           stroke-width="2"
           id="path115" />
      </g>
      <g
         transform="translate(812,60)"
         id="g117">
        <path
           d="m 0,-7 6.1,3.5 v 7 L 0,7 -6.1,3.5 v -7 z"
           fill="none"
           stroke="#297ea6"
           stroke-width="2"
           id="path116" />
      </g>
      <g
         transform="translate(641,102)"
         id="g118">
        <path
           d="m 0,-5 4.3,2.5 v 5 L 0,5 -4.3,2.5 v -5 z"
           fill="none"
           stroke="#297ea6"
           stroke-width="2"
           id="path117" />
      </g>
      <g
         transform="translate(161,307)"
         id="g119">
        <path
           d="m 0,-6 5.2,3 V 3 L 0,6 -5.2,3 v -6 z"
           fill="none"
           stroke="#297ea6"
           stroke-width="2"
           id="path118" />
      </g>
      <g
         transform="translate(843,154)"
         id="g120">
        <path
           d="m 0,-10 8.7,5 V 5 L 0,10 -8.7,5 V -5 Z"
           fill="none"
           stroke="#297ea6"
           stroke-width="2"
           id="path119" />
      </g>
      <g
         transform="translate(250,176)"
         id="g121">
        <path
           d="m 0,-4 3.5,2 V 2 L 0,4 -3.5,2 v -4 z"
           fill="none"
           stroke="#297ea6"
           stroke-width="2"
           id="path120" />
      </g>
      <g
         transform="translate(83,579)"
         id="g122">
        <path
           d="m 0,-7 6.1,3.5 v 7 L 0,7 -6.1,3.5 v -7 z"
           fill="none"
           stroke="#297ea6"
           stroke-width="2"
           id="path121" />
      </g>
      <g
         transform="translate(120,273)"
         id="g123">
        <path
           d="m 0,-7 6.1,3.5 v 7 L 0,7 -6.1,3.5 v -7 z"
           fill="none"
           stroke="#297ea6"
           stroke-width="2"
           id="path122" />
      </g>
      <g
         transform="translate(178,358)"
         id="g124">
        <path
           d="m 0,-6 5.2,3 V 3 L 0,6 -5.2,3 v -6 z"
           fill="none"
           stroke="#297ea6"
           stroke-width="2"
           id="path123" />
      </g>
      <g
         transform="translate(841,378)"
         id="g125">
        <path
           d="m 0,-9 7.8,4.5 v 9 L 0,9 -7.8,4.5 v -9 z"
           fill="none"
           stroke="#297ea6"
           stroke-width="2"
           id="path124" />
      </g>
      <g
         transform="translate(558,277)"
         id="g126">
        <path
           d="m 0,-10 8.7,5 V 5 L 0,10 -8.7,5 V -5 Z"
           fill="none"
           stroke="#297ea6"
           stroke-width="2"
           id="path125" />
      </g>
      <g
         transform="translate(99,146)"
         id="g127">
        <path
           d="m 0,-7 6.1,3.5 v 7 L 0,7 -6.1,3.5 v -7 z"
           fill="none"
           stroke="#297ea6"
           stroke-width="2"
           id="path126" />
      </g>
      <g
         transform="translate(707,263)"
         id="g128">
        <path
           d="m 0,-8 6.9,4 V 4 L 0,8 -6.9,4 v -8 z"
           fill="none"
           stroke="#297ea6"
           stroke-width="2"
           id="path127" />
      </g>
      <g
         transform="translate(692,558)"
         id="g129">
        <path
           d="m 0,-4 3.5,2 V 2 L 0,4 -3.5,2 v -4 z"
           fill="none"
           stroke="#297ea6"
           stroke-width="2"
           id="path128" />
      </g>
      <g
         transform="translate(240,454)"
         id="g130">
        <path
           d="m 0,-8 6.9,4 V 4 L 0,8 -6.9,4 v -8 z"
           fill="none"
           stroke="#297ea6"
           stroke-width="2"
           id="path129" />
      </g>
      <g
         transform="translate(438,577)"
         id="g131">
        <path
           d="m 0,-5 4.3,2.5 v 5 L 0,5 -4.3,2.5 v -5 z"
           fill="none"
           stroke="#297ea6"
           stroke-width="2"
           id="path130" />
      </g>
      <g
         transform="translate(113,556)"
         id="g132">
        <path
           d="m 0,-10 8.7,5 V 5 L 0,10 -8.7,5 V -5 Z"
           fill="none"
           stroke="#297ea6"
           stroke-width="2"
           id="path131" />
      </g>
      <g
         transform="translate(801,193)"
         id="g133">
        <path
           d="m 0,-4 3.5,2 V 2 L 0,4 -3.5,2 v -4 z"
           fill="none"
           stroke="#297ea6"
           stroke-width="2"
           id="path132" />
      </g>
      <g
         transform="translate(388,547)"
         id="g134">
        <path
           d="m 0,-10 8.7,5 V 5 L 0,10 -8.7,5 V -5 Z"
           fill="none"
           stroke="#297ea6"
           stroke-width="2"
           id="path133" />
      </g>
      <g
         transform="translate(359,125)"
         id="g135">
        <path
           d="m 0,-12 10.4,6 V 6 L 0,12 -10.4,6 V -6 Z"
           fill="none"
           stroke="#297ea6"
           stroke-width="2"
           id="path134" />
      </g>
      <g
         transform="translate(270,111)"
         id="g136">
        <path
           d="m 0,-6 5.2,3 V 3 L 0,6 -5.2,3 v -6 z"
           fill="none"
           stroke="#297ea6"
           stroke-width="2"
           id="path135" />
      </g>
      <g
         transform="translate(528,116)"
         id="g137">
        <path
           d="m 0,-10 8.7,5 V 5 L 0,10 -8.7,5 V -5 Z"
           fill="none"
           stroke="#297ea6"
           stroke-width="2"
           id="path136" />
      </g>
      <g
         transform="translate(824,443)"
         id="g138">
        <path
           d="m 0,-8 6.9,4 V 4 L 0,8 -6.9,4 v -8 z"
           fill="none"
           stroke="#297ea6"
           stroke-width="2"
           id="path137" />
      </g>
      <g
         transform="translate(504,277)"
         id="g139">
        <path
           d="m 0,-8 6.9,4 V 4 L 0,8 -6.9,4 v -8 z"
           fill="none"
           stroke="#297ea6"
           stroke-width="2"
           id="path138" />
      </g>
      <g
         transform="translate(321,127)"
         id="g140">
        <path
           d="m 0,-6 5.2,3 V 3 L 0,6 -5.2,3 v -6 z"
           fill="none"
           stroke="#297ea6"
           stroke-width="2"
           id="path139" />
      </g>
      <g
         transform="translate(408,278)"
         id="g141">
        <path
           d="m 0,-6 5.2,3 V 3 L 0,6 -5.2,3 v -6 z"
           fill="none"
           stroke="#297ea6"
           stroke-width="2"
           id="path140" />
      </g>
      <g
         transform="translate(475,464)"
         id="g142">
        <path
           d="m 0,-12 10.4,6 V 6 L 0,12 -10.4,6 V -6 Z"
           fill="none"
           stroke="#297ea6"
           stroke-width="2"
           id="path141" />
      </g>
      <g
         transform="translate(684,362)"
         id="g143">
        <path
           d="m 0,-12 10.4,6 V 6 L 0,12 -10.4,6 V -6 Z"
           fill="none"
           stroke="#297ea6"
           stroke-width="2"
           id="path142" />
      </g>
      <g
         transform="translate(472,591)"
         id="g144">
        <path
           d="m 0,-5 4.3,2.5 v 5 L 0,5 -4.3,2.5 v -5 z"
           fill="none"
           stroke="#297ea6"
           stroke-width="2"
           id="path143" />
      </g>
      <g
         transform="translate(173,461)"
         id="g145">
        <path
           d="m 0,-8 6.9,4 V 4 L 0,8 -6.9,4 v -8 z"
           fill="none"
           stroke="#297ea6"
           stroke-width="2"
           id="path144" />
      </g>
      <g
         transform="translate(16,76)"
         id="g146">
        <path
           d="m 0,-4 3.5,2 V 2 L 0,4 -3.5,2 v -4 z"
           fill="none"
           stroke="#297ea6"
           stroke-width="2"
           id="path145" />
      </g>
      <g
         transform="translate(302,65)"
         id="g147">
        <path
           d="m 0,-11 9.5,5.5 v 11 L 0,11 -9.5,5.5 v -11 z"
           fill="none"
           stroke="#297ea6"
           stroke-width="2"
           id="path146" />
      </g>
      <g
         transform="translate(91,39)"
         id="g148">
        <path
           d="m 0,-10 8.7,5 V 5 L 0,10 -8.7,5 V -5 Z"
           fill="none"
           stroke="#297ea6"
           stroke-width="2"
           id="path147" />
      </g>
      <g
         transform="translate(672,157)"
         id="g149">
        <path
           d="m 0,-4 3.5,2 V 2 L 0,4 -3.5,2 v -4 z"
           fill="none"
           stroke="#297ea6"
           stroke-width="2"
           id="path148" />
      </g>
      <g
         transform="translate(867,169)"
         id="g150">
        <path
           d="m 0,-10 8.7,5 V 5 L 0,10 -8.7,5 V -5 Z"
           fill="none"
           stroke="#297ea6"
           stroke-width="2"
           id="path149" />
      </g>
      <g
         transform="translate(658,402)"
         id="g151">
        <path
           d="m 0,-9 7.8,4.5 v 9 L 0,9 -7.8,4.5 v -9 z"
           fill="none"
           stroke="#297ea6"
           stroke-width="2"
           id="path150" />
      </g>
      <g
         transform="translate(608,564)"
         id="g152">
        <path
           d="m 0,-7 6.1,3.5 v 7 L 0,7 -6.1,3.5 v -7 z"
           fill="none"
           stroke="#297ea6"
           stroke-width="2"
           id="path151" />
      </g>
      <g
         transform="translate(497,150)"
         id="g153">
        <path
           d="m 0,-7 6.1,3.5 v 7 L 0,7 -6.1,3.5 v -7 z"
           fill="none"
           stroke="#297ea6"
           stroke-width="2"
           id="path152" />
      </g>
      <g
         transform="translate(457,209)"
         id="g154">
        <path
           d="m 0,-11 9.5,5.5 v 11 L 0,11 -9.5,5.5 v -11 z"
           fill="none"
           stroke="#297ea6"
           stroke-width="2"
           id="path153" />
      </g>
      <g
         transform="translate(108,469)"
         id="g155">
        <path
           d="m 0,-11 9.5,5.5 v 11 L 0,11 -9.5,5.5 v -11 z"
           fill="none"
           stroke="#297ea6"
           stroke-width="2"
           id="path154" />
      </g>
      <g
         transform="translate(201,520)"
         id="g156">
        <path
           d="m 0,-5 4.3,2.5 v 5 L 0,5 -4.3,2.5 v -5 z"
           fill="none"
           stroke="#297ea6"
           stroke-width="2"
           id="path155" />
      </g>
      <g
         transform="translate(600,473)"
         id="g157">
        <path
           d="m 0,-11 9.5,5.5 v 11 L 0,11 -9.5,5.5 v -11 z"
           fill="none"
           stroke="#297ea6"
           stroke-width="2"
           id="path156" />
      </g>
      <g
         transform="translate(285,210)"
         id="g158">
        <path
           d="m 0,-6 5.2,3 V 3 L 0,6 -5.2,3 v -6 z"
           fill="none"
           stroke="#297ea6"
           stroke-width="2"
           id="path157" />
      </g>
      <g
         transform="translate(544,573)"
         id="g159">
        <path
           d="m 0,-10 8.7,5 V 5 L 0,10 -8.7,5 V -5 Z"
           fill="none"
           stroke="#297ea6"
           stroke-width="2"
           id="path158" />
      </g>
      <g
         transform="translate(542,206)"
         id="g160">
        <path
           d="m 0,-6 5.2,3 V 3 L 0,6 -5.2,3 v -6 z"
           fill="none"
           stroke="#297ea6"
           stroke-width="2"
           id="path159" />
      </g>
      <g
         transform="translate(344,337)"
         id="g161">
        <path
           d="m 0,-11 9.5,5.5 v 11 L 0,11 -9.5,5.5 v -11 z"
           fill="none"
           stroke="#297ea6"
           stroke-width="2"
           id="path160" />
      </g>
      <g
         transform="translate(656,219)"
         id="g162">
        <path
           d="m 0,-5 4.3,2.5 v 5 L 0,5 -4.3,2.5 v -5 z"
           fill="none"
           stroke="#297ea6"
           stroke-width="2"
           id="path161" />
      </g>
      <g
         transform="translate(609,498)"
         id="g163">
        <path
           d="m 0,-4 3.5,2 V 2 L 0,4 -3.5,2 v -4 z"
           fill="none"
           stroke="#297ea6"
           stroke-width="2"
           id="path162" />
      </g>
      <g
         transform="translate(307,417)"
         id="g164">
        <path
           d="m 0,-5 4.3,2.5 v 5 L 0,5 -4.3,2.5 v -5 z"
           fill="none"
           stroke="#297ea6"
           stroke-width="2"
           id="path163" />
      </g>
      <g
         transform="translate(344,267)"
         id="g165">
        <path
           d="m 0,-10 8.7,5 V 5 L 0,10 -8.7,5 V -5 Z"
           fill="none"
           stroke="#297ea6"
           stroke-width="2"
           id="path164" />
      </g>
      <g
         transform="translate(160,12)"
         id="g166">
        <path
           d="m 0,-6 5.2,3 V 3 L 0,6 -5.2,3 v -6 z"
           fill="none"
           stroke="#297ea6"
           stroke-width="2"
           id="path165" />
      </g>
      <g
         transform="translate(843,583)"
         id="g167">
        <path
           d="m 0,-10 8.7,5 V 5 L 0,10 -8.7,5 V -5 Z"
           fill="none"
           stroke="#297ea6"
           stroke-width="2"
           id="path166" />
      </g>
      <g
         transform="translate(632,418)"
         id="g168">
        <path
           d="m 0,-4 3.5,2 V 2 L 0,4 -3.5,2 v -4 z"
           fill="none"
           stroke="#297ea6"
           stroke-width="2"
           id="path167" />
      </g>
      <g
         transform="translate(141,116)"
         id="g169">
        <path
           d="m 0,-11 9.5,5.5 v 11 L 0,11 -9.5,5.5 v -11 z"
           fill="none"
           stroke="#297ea6"
           stroke-width="2"
           id="path168" />
      </g>
      <g
         transform="translate(518,452)"
         id="g170">
        <path
           d="m 0,-5 4.3,2.5 v 5 L 0,5 -4.3,2.5 v -5 z"
           fill="none"
           stroke="#297ea6"
           stroke-width="2"
           id="path169" />
      </g>
      <g
         transform="translate(226,52)"
         id="g171">
        <path
           d="m 0,-9 7.8,4.5 v 9 L 0,9 -7.8,4.5 v -9 z"
           fill="none"
           stroke="#297ea6"
           stroke-width="2"
           id="path170" />
      </g>
    </g>
  </g>
</svg>
