<?xml version="1.0" encoding="UTF-8" standalone="no"?>
<!-- Created with Inkscape (http://www.inkscape.org/) -->

<svg
   width="210mm"
   height="297mm"
   viewBox="0 0 210 297"
   version="1.1"
   id="svg1"
   xml:space="preserve"
   inkscape:version="1.3 (0e150ed6c4, 2023-07-21)"
   sodipodi:docname="vorderseite.svg"
   xmlns:inkscape="http://www.inkscape.org/namespaces/inkscape"
   xmlns:sodipodi="http://sodipodi.sourceforge.net/DTD/sodipodi-0.dtd"
   xmlns="http://www.w3.org/2000/svg"
   xmlns:svg="http://www.w3.org/2000/svg"><sodipodi:namedview
     id="namedview1"
     pagecolor="#ffffff"
     bordercolor="#000000"
     borderopacity="0.25"
     inkscape:showpageshadow="2"
     inkscape:pageopacity="0.0"
     inkscape:pagecheckerboard="0"
     inkscape:deskcolor="#d1d1d1"
     inkscape:document-units="mm"
     inkscape:zoom="0.51213161"
     inkscape:cx="481.32159"
     inkscape:cy="755.66513"
     inkscape:window-width="1346"
     inkscape:window-height="1032"
     inkscape:window-x="2533"
     inkscape:window-y="99"
     inkscape:window-maximized="0"
     inkscape:current-layer="svg1" /><defs
     id="defs1"><linearGradient
       id="grad1_0"
       x1="33.3%"
       y1="0%"
       x2="100%"
       y2="100%"><stop
         offset="20%"
         stop-color="#7c93c3"
         stop-opacity="1"
         id="stop1" /><stop
         offset="80%"
         stop-color="#7c93c3"
         stop-opacity="1"
         id="stop2" /></linearGradient><linearGradient
       id="grad1_1"
       x1="33.3%"
       y1="0%"
       x2="100%"
       y2="100%"><stop
         offset="20%"
         stop-color="#7c93c3"
         stop-opacity="1"
         id="stop3" /><stop
         offset="80%"
         stop-color="#a0b3d7"
         stop-opacity="1"
         id="stop4" /></linearGradient><linearGradient
       id="grad1_2"
       x1="33.3%"
       y1="0%"
       x2="100%"
       y2="100%"><stop
         offset="20%"
         stop-color="#c6d4eb"
         stop-opacity="1"
         id="stop5" /><stop
         offset="80%"
         stop-color="#a0b3d7"
         stop-opacity="1"
         id="stop6" /></linearGradient><linearGradient
       id="grad1_3"
       x1="33.3%"
       y1="0%"
       x2="100%"
       y2="100%"><stop
         offset="20%"
         stop-color="#c6d4eb"
         stop-opacity="1"
         id="stop7" /><stop
         offset="80%"
         stop-color="#eef5ff"
         stop-opacity="1"
         id="stop8" /></linearGradient><linearGradient
       id="grad2_0"
       x1="0%"
       y1="0%"
       x2="66.7%"
       y2="100%"><stop
         offset="20%"
         stop-color="#7c93c3"
         stop-opacity="1"
         id="stop9" /><stop
         offset="80%"
         stop-color="#7c93c3"
         stop-opacity="1"
         id="stop10" /></linearGradient><linearGradient
       id="grad2_1"
       x1="0%"
       y1="0%"
       x2="66.7%"
       y2="100%"><stop
         offset="20%"
         stop-color="#a0b3d7"
         stop-opacity="1"
         id="stop11" /><stop
         offset="80%"
         stop-color="#7c93c3"
         stop-opacity="1"
         id="stop12" /></linearGradient><linearGradient
       id="grad2_2"
       x1="0%"
       y1="0%"
       x2="66.7%"
       y2="100%"><stop
         offset="20%"
         stop-color="#a0b3d7"
         stop-opacity="1"
         id="stop13" /><stop
         offset="80%"
         stop-color="#c6d4eb"
         stop-opacity="1"
         id="stop14" /></linearGradient><linearGradient
       id="grad2_3"
       x1="0%"
       y1="0%"
       x2="66.7%"
       y2="100%"><stop
         offset="20%"
         stop-color="#eef5ff"
         stop-opacity="1"
         id="stop15" /><stop
         offset="80%"
         stop-color="#c6d4eb"
         stop-opacity="1"
         id="stop16" /></linearGradient></defs><g
     id="g1"
     transform="matrix(0.35,0,0,0.33,-52.500001,49.5)"><rect
       x="-150"
       y="-750"
       width="900"
       height="600"
       fill="#eef5ff"
       id="rect1"
       transform="rotate(90)" /><g
       transform="rotate(90,0,750)"
       id="g19"><path
         d="m 0,297.5 c -30.1,-17 -60.1,-34 -77.9,-57.8 -17.7,-23.9 -23.2,-54.6 -50.2,-63.3 -27.1,-8.8 -75.7,4.3 -105.7,-6.5 -30.1,-10.9 -41.6,-45.7 -49.1,-78 -7.5,-32.3 -11,-62.1 -14.6,-91.9 H 0 Z"
         fill="#dae4f5"
         id="path16" /><path
         d="m 0,223.1 c -22.5,-12.7 -45.1,-25.5 -58.4,-43.4 -13.3,-17.8 -17.4,-40.8 -37.7,-47.4 -20.3,-6.6 -56.7,3.2 -79.3,-4.9 -22.5,-8.1 -31.1,-34.2 -36.8,-58.5 -5.6,-24.2 -8.3,-46.5 -10.9,-68.9 H 0 Z"
         fill="#b2c3e1"
         id="path17" /><path
         d="m 0,148.7 c -15,-8.5 -30.1,-17 -38.9,-28.9 -8.9,-11.9 -11.7,-27.2 -25.2,-31.6 -13.5,-4.4 -37.8,2.2 -52.8,-3.3 -15,-5.4 -20.8,-22.8 -24.5,-38.9 -3.8,-16.2 -5.6,-31.1 -7.3,-46 H 0 Z"
         fill="#8ea3cd"
         id="path18" /><path
         d="M 0,74.4 C -7.5,70.1 -15,65.9 -19.5,59.9 -23.9,54 -25.3,46.3 -32,44.1 -38.8,41.9 -50.9,45.2 -58.5,42.5 -66,39.8 -68.8,31.1 -70.7,23 -72.6,14.9 -73.5,7.5 -74.4,0 H 0 Z"
         fill="#7c93c3"
         id="path19" /></g><g
       transform="rotate(90,150,0)"
       id="g23"><path
         d="m 0,-297.5 c 25.4,25.5 50.8,51 76,63.5 25.2,12.6 50.3,12.3 80.9,18 30.7,5.7 67.1,17.5 83.7,41.2 16.7,23.6 13.8,59 20,90.1 6.2,31.1 21.5,57.9 36.9,84.7 H 0 Z"
         fill="#dae4f5"
         id="path20" /><path
         d="m 0,-223.1 c 19.1,19.1 38.1,38.2 57,47.6 18.9,9.5 37.7,9.2 60.7,13.5 23,4.3 50.3,13.2 62.8,30.9 12.5,17.7 10.3,44.3 14.9,67.6 4.7,23.3 16.2,43.4 27.7,63.5 H 0 Z"
         fill="#b2c3e1"
         id="path21" /><path
         d="m 0,-148.7 c 12.7,12.7 25.4,25.4 38,31.7 12.6,6.3 25.1,6.1 40.5,9 15.3,2.9 33.5,8.8 41.8,20.6 8.4,11.8 6.9,29.5 10,45.1 3.1,15.5 10.8,28.9 18.4,42.3 H 0 Z"
         fill="#8ea3cd"
         id="path22" /><path
         d="m 0,-74.4 c 6.4,6.4 12.7,12.8 19,15.9 6.3,3.2 12.6,3.1 20.2,4.5 7.7,1.4 16.8,4.4 21,10.3 4.1,5.9 3.4,14.8 4.9,22.5 1.6,7.8 5.4,14.5 9.3,21.2 H 0 Z"
         fill="#7c93c3"
         id="path23" /></g></g></svg>
